<?xml version="1.0" encoding="utf-8"?>
<!-- Generator: Adobe Illustrator 19.2.1, SVG Export Plug-In . SVG Version: 6.00 Build 0)  -->
<svg version="1.1" id="Layer_1" xmlns="http://www.w3.org/2000/svg" xmlns:xlink="http://www.w3.org/1999/xlink" x="0px" y="0px"
	 viewBox="0 0 34 34" style="enable-background:new 0 0 34 34;" xml:space="preserve">
<style type="text/css">
	.st0{fill:#517CBE;}
	.st1{fill:#FFFFFF;}
</style>
<g>
	<path class="st0" d="M17,34c9.4,0,17-7.6,17-17c0-9.4-7.6-17-17-17C7.6,0,0,7.6,0,17C0,26.4,7.6,34,17,34"/>
	<path class="st1" d="M12.5,13.9h1.9V12c0-0.8,0-2.1,0.6-2.9c0.6-0.8,1.5-1.4,3-1.4c2.4,0,3.4,0.3,3.4,0.3L21,10.9
		c0,0-0.8-0.2-1.5-0.2c-0.7,0-1.4,0.3-1.4,1v2.2h3l-0.2,2.8H18v9.6h-3.6v-9.6h-1.9V13.9z"/>
</g>
</svg>
