<?xml version="1.0" encoding="utf-8"?>
<!-- Generator: Adobe Illustrator 19.2.1, SVG Export Plug-In . SVG Version: 6.00 Build 0)  -->
<svg version="1.1" id="Layer_1" xmlns="http://www.w3.org/2000/svg" xmlns:xlink="http://www.w3.org/1999/xlink" x="0px" y="0px"
	 viewBox="0 0 34 34" style="enable-background:new 0 0 34 34;" xml:space="preserve">
<style type="text/css">
	.st0{fill:#5F6364;}
	.st1{fill:#FFFFFF;}
</style>
<g>
	<path class="st0" d="M17,34c9.4,0,17-7.6,17-17c0-9.4-7.6-17-17-17C7.6,0,0,7.6,0,17C0,26.4,7.6,34,17,34"/>
</g>
<g>
	<path class="st1" d="M17,12.3c-2.6,0-4.7,2.1-4.7,4.7s2.1,4.7,4.7,4.7c2.6,0,4.7-2.1,4.7-4.7S19.6,12.3,17,12.3z M17,20.1
		c-1.7,0-3.1-1.4-3.1-3.1c0-1.7,1.4-3.1,3.1-3.1c1.7,0,3.1,1.4,3.1,3.1C20.1,18.7,18.7,20.1,17,20.1z"/>
	<circle class="st1" cx="22" cy="12" r="1.1"/>
	<path class="st1" d="M21.2,7.7h-8.5c-2.8,0-5.1,2.3-5.1,5.1v8.5c0,2.8,2.3,5.1,5.1,5.1h8.5c2.8,0,5.1-2.3,5.1-5.1v-8.5
		C26.3,10,24,7.7,21.2,7.7z M24.5,21.2c0,1.8-1.5,3.3-3.3,3.3h-8.5c-1.8,0-3.3-1.5-3.3-3.3v-8.5c0-1.8,1.5-3.3,3.3-3.3h8.5
		c1.8,0,3.3,1.5,3.3,3.3V21.2z"/>
</g>
</svg>
